<svg width="87" height="86" viewBox="0 0 87 86" fill="none" xmlns="http://www.w3.org/2000/svg">
<rect x="0.681885" y="0.580078" width="85.3636" height="85.3636" rx="11.8561" fill="white"/>
<g clip-path="url(#clip0_1_143)">
<g clip-path="url(#clip1_1_143)">
<g clip-path="url(#clip2_1_143)">
<path d="M7.20264 15.6292C7.20264 12.3552 9.85671 9.70117 13.1307 9.70117H33.2026C46.2985 9.70117 56.9147 20.3175 56.9147 33.4133V64.2391C56.9147 67.513 54.2606 70.1671 50.9867 70.1671H30.9148C17.8189 70.1671 7.20264 59.5508 7.20264 46.455V15.6292Z" fill="#4EA3DB" fill-opacity="0.15"/>
<path d="M79.0533 38.5828L79.0588 38.5788C79.3344 38.3722 79.5618 38.0809 79.5618 37.7031C79.5618 37.3398 79.3481 36.9739 79.0478 36.8198L54.2631 20.1665L54.258 20.1633C53.8951 19.9456 53.3927 19.9456 53.0298 20.1633L53.0249 20.1664L22.4492 40.5936C22.38 40.6288 22.3215 40.6672 22.2707 40.7181C22.2182 40.7706 22.1788 40.8313 22.1427 40.9035C22.1344 40.9199 22.1302 40.9381 22.1302 40.9565V40.9578V40.959V40.9603V40.9615V40.9628V40.964V40.9653V40.9665V40.9678V40.969V40.9703V40.9714V40.9729V40.9742V40.9756V40.9769V40.9782V40.9795V40.9808V40.9822V40.9835V40.9848V40.9861C22.0702 41.0824 22.0364 41.1696 22.0186 41.2586C22 41.3515 22 41.4431 22 41.5361V41.5421V59.4357C22 59.7991 22.2138 60.165 22.5142 60.3191L47.2991 76.8423C47.5003 76.9764 47.6546 77.0575 47.8855 77.0575C48.1001 77.0575 48.324 76.9875 48.481 76.8361L79.1186 56.4111L79.1239 56.4073C79.3993 56.2007 79.6269 55.9095 79.6269 55.5316C79.6269 55.5251 79.6263 55.5186 79.6252 55.5122C79.5573 55.1042 79.351 54.7389 79.0479 54.5834L74.2913 51.3694V41.7359L79.0533 38.5828ZM29.4156 44.4423C29.3815 44.4106 29.3442 44.3879 29.3261 44.377C29.3191 44.3483 29.3016 44.3229 29.2764 44.3062L25.0009 41.4769L53.6763 22.4245L76.4953 37.6372L72.884 40.0033C72.6789 40.0748 72.4787 40.2083 72.3406 40.3437L47.8202 56.6906L29.4156 44.4423ZM29.785 47.3595L47.169 58.9488L47.1737 58.9518C47.5366 59.1696 48.039 59.1696 48.4019 58.9518L48.4066 58.9487L72.1022 43.1302V50.848L47.9495 66.7771L29.785 55.1414V47.3595ZM28.1638 56.6676L28.171 56.6725L47.4209 69.0289C47.5065 69.1099 47.6092 69.1478 47.7096 69.1661C47.8097 69.1842 47.9164 69.1842 48.0103 69.1842H48.0155C48.2344 69.1842 48.4479 69.1123 48.5891 69.0416L48.6012 69.0346L72.8704 53.0715L76.4977 55.5307L47.8205 74.5842L24.1241 58.7866V43.5835L27.6609 45.9006V55.7269C27.6609 56.0968 27.8801 56.4547 28.1638 56.6676Z" fill="#4EA3DB" stroke="#4EA3DB" stroke-width="0.237121" stroke-linecap="round" stroke-linejoin="round"/>
</g>
</g>
</g>
<defs>
<clipPath id="clip0_1_143">
<rect width="72.322" height="67.5795" fill="white" transform="translate(7.20264 9.47266)"/>
</clipPath>
<clipPath id="clip1_1_143">
<rect width="72.322" height="67.5795" fill="white" transform="translate(7.20264 9.47266)"/>
</clipPath>
<clipPath id="clip2_1_143">
<rect width="72.322" height="67.5795" fill="white" transform="translate(7.20264 9.47266)"/>
</clipPath>
</defs>
</svg>
