<svg width="87" height="87" viewBox="0 0 87 87" fill="none" xmlns="http://www.w3.org/2000/svg">
<rect x="0.681946" y="0.85141" width="85.3636" height="85.3636" rx="11.8561" fill="white"/>
<g clip-path="url(#clip0_1_123)">
<g clip-path="url(#clip1_1_123)">
<g clip-path="url(#clip2_1_123)">
<path d="M3.64581 14.0607C3.64581 10.7867 6.29989 8.13266 9.57384 8.13266H29.6458C42.7416 8.13266 53.3579 18.7489 53.3579 31.8448V62.6706C53.3579 65.9445 50.7038 68.5986 47.4299 68.5986H27.3579C14.2621 68.5986 3.64581 57.9823 3.64581 44.8865V14.0607Z" fill="#4EA3DB" fill-opacity="0.15"/>
<path d="M81.5979 39.9282L81.6035 39.9242C81.879 39.7177 82.1064 39.4264 82.1064 39.0485C82.1064 38.6852 81.8927 38.3194 81.5924 38.1652L56.8077 21.512L56.8026 21.5088C56.4397 21.291 55.9373 21.291 55.5744 21.5088L55.5696 21.5119L24.9938 41.939C24.9246 41.9742 24.8662 42.0126 24.8153 42.0635C24.7628 42.116 24.7234 42.1767 24.6874 42.2489C24.6791 42.2653 24.6748 42.2836 24.6748 42.3019V42.3032V42.3044V42.3057V42.3069V42.3082V42.3094V42.3107V42.3119V42.3132V42.3144V42.3157V42.3169V42.3183V42.3196V42.321V42.3223V42.3236V42.3249V42.3262V42.3277V42.329V42.3303V42.3316C24.6148 42.4278 24.581 42.515 24.5632 42.604C24.5446 42.697 24.5446 42.7885 24.5446 42.8816V42.8875V60.7811C24.5446 61.1445 24.7584 61.5104 25.0588 61.6645L49.8437 78.1877C50.0449 78.3218 50.1992 78.4029 50.4301 78.4029C50.6447 78.4029 50.8686 78.333 51.0256 78.1816L81.6632 57.7565L81.6685 57.7528C81.944 57.5461 82.1715 57.2549 82.1715 56.8771C82.1715 56.8705 82.1709 56.864 82.1698 56.8576C82.1019 56.4497 81.8956 56.0844 81.5925 55.9288L76.8359 52.7149V43.0814L81.5979 39.9282ZM31.9602 45.7877C31.9261 45.7561 31.8889 45.7333 31.8707 45.7224C31.8637 45.6937 31.8462 45.6683 31.821 45.6516L27.5455 42.8223L56.2209 23.77L79.0399 38.9826L75.4286 41.3487C75.2235 41.4202 75.0233 41.5537 74.8852 41.6891L50.3649 58.036L31.9602 45.7877ZM32.3297 48.7049L49.7136 60.2942L49.7184 60.2972C50.0813 60.515 50.5836 60.515 50.9465 60.2972L50.9513 60.2941L74.6468 44.4756V52.1934L50.4941 68.1225L32.3297 56.4869V48.7049ZM30.7085 58.013L30.7156 58.018L49.9656 70.3744C50.0512 70.4553 50.1538 70.4933 50.2542 70.5115C50.3543 70.5297 50.461 70.5297 50.5549 70.5297H50.5601C50.779 70.5297 50.9925 70.4577 51.1337 70.387L51.1458 70.3801L75.4151 54.4169L79.0423 56.8761L50.3651 75.9296L26.6687 60.132V44.9289L30.2055 47.246V57.0723C30.2055 57.4422 30.4247 57.8002 30.7085 58.013Z" fill="#4EA3DB" stroke="#4EA3DB" stroke-width="0.237121" stroke-linecap="round" stroke-linejoin="round"/>
<path d="M51.9223 32.6358L51.9242 32.6371L63.5063 40.5754L63.5075 40.5762C63.714 40.7139 63.9321 40.7913 64.0939 40.7913C64.2727 40.7913 64.44 40.7554 64.5911 40.6704C64.7412 40.586 64.8682 40.4572 64.9738 40.2823C65.3378 39.7684 65.1849 39.1126 64.6833 38.7544L64.6817 38.7532L53.1663 30.8161C53.166 30.816 53.1666 30.8163 53.1663 30.8161C52.652 30.4494 51.9935 30.6015 51.6345 31.104C51.2669 31.6185 51.4195 32.2766 51.9223 32.6358Z" fill="#4EA3DB"/>
<path d="M53.1663 30.8161L64.6817 38.7532L64.6833 38.7544C65.1849 39.1126 65.3378 39.7684 64.9738 40.2823C64.8682 40.4572 64.7412 40.586 64.5911 40.6704C64.44 40.7554 64.2727 40.7913 64.0939 40.7913C63.9321 40.7913 63.714 40.7139 63.5075 40.5762L63.5063 40.5754L51.9242 32.6371L51.9223 32.6358C51.4195 32.2766 51.2669 31.6185 51.6345 31.104C51.9935 30.6015 52.652 30.4494 53.1663 30.8161ZM53.1663 30.8161C53.166 30.816 53.1666 30.8163 53.1663 30.8161Z" stroke="#4EA3DB" stroke-width="0.237121" stroke-linecap="round" stroke-linejoin="round"/>
</g>
</g>
</g>
<defs>
<clipPath id="clip0_1_123">
<rect width="79.4356" height="72.322" fill="white" transform="translate(3.64581 7.37485)"/>
</clipPath>
<clipPath id="clip1_1_123">
<rect width="79.4356" height="72.322" fill="white" transform="translate(3.64581 7.37485)"/>
</clipPath>
<clipPath id="clip2_1_123">
<rect width="79.4356" height="72.322" fill="white" transform="translate(3.64581 7.37485)"/>
</clipPath>
</defs>
</svg>
