<svg width="882" height="1024" viewBox="0 0 882 1024" fill="none" xmlns="http://www.w3.org/2000/svg">
<g filter="url(#filter0_d_1_392)">
<rect x="32" y="32" width="786" height="960" rx="24" fill="#727272"/>
<path d="M512 424H336C331.757 424 327.687 425.686 324.686 428.686C321.686 431.687 320 435.757 320 440V584C320 588.243 321.686 592.313 324.686 595.314C327.687 598.314 331.757 600 336 600H512C516.243 600 520.313 598.314 523.314 595.314C526.314 592.313 528 588.243 528 584V440C528 435.757 526.314 431.687 523.314 428.686C520.313 425.686 516.243 424 512 424ZM512 440V542.75L485.93 516.69C484.444 515.204 482.68 514.025 480.739 513.221C478.797 512.416 476.716 512.002 474.615 512.002C472.514 512.002 470.433 512.416 468.491 513.221C466.55 514.025 464.786 515.204 463.3 516.69L443.3 536.69L399.3 492.69C396.3 489.692 392.232 488.007 387.99 488.007C383.748 488.007 379.68 489.692 376.68 492.69L336 533.37V440H512ZM336 556L388 504L468 584H336V556ZM512 584H490.63L454.63 548L474.63 528L512 565.38V584ZM440 484C440 481.627 440.704 479.307 442.022 477.333C443.341 475.36 445.215 473.822 447.408 472.913C449.601 472.005 452.013 471.768 454.341 472.231C456.669 472.694 458.807 473.836 460.485 475.515C462.163 477.193 463.306 479.331 463.769 481.659C464.232 483.987 463.995 486.399 463.087 488.592C462.178 490.785 460.64 492.659 458.667 493.978C456.693 495.296 454.373 496 452 496C448.817 496 445.765 494.736 443.515 492.485C441.264 490.235 440 487.183 440 484Z" fill="#8C8C8C"/>
</g>
<defs>
<filter id="filter0_d_1_392" x="-16" y="-16" width="898" height="1072" filterUnits="userSpaceOnUse" color-interpolation-filters="sRGB">
<feFlood flood-opacity="0" result="BackgroundImageFix"/>
<feColorMatrix in="SourceAlpha" type="matrix" values="0 0 0 0 0 0 0 0 0 0 0 0 0 0 0 0 0 0 127 0" result="hardAlpha"/>
<feMorphology radius="8" operator="dilate" in="SourceAlpha" result="effect1_dropShadow_1_392"/>
<feOffset dx="8" dy="8"/>
<feGaussianBlur stdDeviation="24"/>
<feComposite in2="hardAlpha" operator="out"/>
<feColorMatrix type="matrix" values="0 0 0 0 0 0 0 0 0 0 0 0 0 0 0 0 0 0 0.08 0"/>
<feBlend mode="normal" in2="BackgroundImageFix" result="effect1_dropShadow_1_392"/>
<feBlend mode="normal" in="SourceGraphic" in2="effect1_dropShadow_1_392" result="shape"/>
</filter>
</defs>
</svg>
